<svg width="188" height="63" viewBox="0 0 188 63" fill="none" xmlns="http://www.w3.org/2000/svg">
<path d="M35.3006 50.6251C35.3006 55.5875 37.435 60.2286 43.5022 60.2286C51.979 60.2286 60.074 48.6245 60.074 47.5388C60.074 46.7237 59.8 46.453 59.1022 46.453C58.4044 46.453 57.367 47.9586 55.6317 49.687C53.4329 51.8338 51.4881 53.4146 49.0786 53.4146C45.5064 53.4146 44.1542 51.5877 44.1542 48.5014C44.1542 46.1852 45.2102 41.6383 47.2392 37.3171C48.4018 34.9228 51.9492 28.3564 55.0615 28.3564C56.8786 28.3564 57.5764 29.4421 58.3375 30.5032C59.7753 32.5038 61.0222 33.4172 63.3474 33.4172C65.6727 33.4172 67.0039 32.084 67.0039 30.3555C67.0039 26.9493 61.7981 25.8867 58.4218 25.8867C45.147 25.9113 35.2969 39.3496 35.2969 50.6251H35.3006Z" fill="#97B5CF"/>
<path d="M21.5987 34.2534C21.5987 37.8087 25.9369 39.5603 29.4198 39.5603C36.543 39.5603 44.7446 34.4256 44.7446 28.5251C44.7446 25.4634 42.5458 22.3786 40.4065 19.3907C38.2672 16.4028 35.9679 13.5148 35.9679 10.9221C35.9679 9.41657 37.024 8.33085 38.9687 8.33085C41.1043 8.33085 42.1393 9.41657 43.5139 10.8237C44.6765 12.0093 45.1624 12.3306 46.5159 12.3306C48.4395 12.3306 49.6021 11.145 49.6021 9.51501C49.6021 6.28103 46.1316 5.19531 42.5619 5.19531C36.9843 5.19531 28.8645 10.1085 28.8645 15.071C28.8645 17.8851 30.8948 20.9454 33.0081 24.2054C35.0371 27.341 37.0661 30.7472 37.0661 34.1535C37.0661 34.9685 36.1985 36.7216 34.3814 36.7216C31.6979 36.7216 30.3234 35.3145 29.3516 34.0797C27.9981 32.3526 27.0474 30.9441 25.2081 30.9441C22.946 30.9441 21.5938 32.4265 21.5938 34.2534H21.5987Z" fill="#97B5CF"/>
<path d="M53.8984 11.0757C53.8984 13.8161 56.0328 14.9756 57.9565 14.9756C62.1843 14.9756 65.2917 11.3218 65.2917 7.42192C65.2917 4.60775 63.5564 3.19922 61.339 3.19922C57.1744 3.19922 53.9022 7.49575 53.9022 11.0757H53.8984Z" fill="#97B5CF"/>
<path d="M69.2656 11.0757C69.2656 13.8161 71.4012 14.9756 73.3237 14.9756C77.5515 14.9756 80.6589 11.3218 80.6589 7.42192C80.6589 4.60775 78.9236 3.19922 76.7062 3.19922C72.5416 3.19922 69.2693 7.49575 69.2693 11.0757H69.2656Z" fill="#97B5CF"/>
<path d="M5.41887 53.3886C4.67519 55.4153 4.2141 57.3131 4.38267 58.3018C4.61569 59.7827 5.82046 60.0534 8.04036 59.7827C14.1497 59.0661 26.6213 50.1792 26.2408 47.8587C26.1652 47.4345 25.8268 47.1465 25.4587 47.1913C24.9716 47.2405 24.2105 47.9151 22.6897 49.2904C20.4909 51.2403 17.7008 53.4132 15.9036 53.6332C14.8674 53.7577 14.5079 53.5348 14.4237 52.8935C14.3183 52.3 14.9318 51.165 15.269 50.3008L23.2599 30.7478C23.809 29.3407 24.2961 27.6123 24.0841 26.2298C23.7879 24.4275 22.6463 23.8847 20.0471 24.2031C14.5079 24.8937 2.52346 34.2018 2.88291 36.3979C2.94612 36.7193 3.45307 36.9176 3.83359 36.8669C4.31946 36.8177 4.74212 36.4225 6.70793 34.8402C8.16679 33.6546 10.704 31.3341 12.7119 31.1126C13.3032 31.0388 13.7258 31.4021 13.7903 31.7539C13.8324 32.0015 13.3676 33.3839 12.9016 34.6188L5.41887 53.3813V53.3886Z" fill="#97B5CF"/>
<path d="M14.875 10.875C14.875 13.6154 17.0106 14.7764 18.9343 14.7764C23.1621 14.7764 26.2695 11.1226 26.2695 7.22126C26.2695 4.40709 24.5342 3 22.3168 3C18.1732 3 14.88 7.31969 14.88 10.875H14.875Z" fill="#97B5CF"/>
<path d="M71.8235 46.9297H70.9062V55.1232H71.8235V46.9297Z" fill="#006289"/>
<path d="M74.1429 49.7213H73.3125V55.1064H74.1429V51.2413C74.5396 50.6767 74.8247 50.4596 75.1965 50.4596C75.7047 50.4596 76.0146 50.9807 76.0146 51.7624V55.1064H76.845V51.7769C76.845 50.3003 76.2129 49.6055 75.4072 49.6055C74.9003 49.6286 74.4317 49.9283 74.1429 50.4161H74.1182L74.1429 49.7213Z" fill="#006289"/>
<path d="M80.6635 50.071C80.2917 49.7974 79.8628 49.6469 79.424 49.6367C78.5812 49.6367 78.0358 50.1868 78.0358 51.1133C78.0358 52.5754 80.019 52.9518 80.019 53.719C80.019 54.1099 79.7339 54.3125 79.3993 54.3415C79.0522 54.3415 78.5688 54.1099 78.0234 53.6321V54.7902C78.5688 55.1521 78.9778 55.2824 79.486 55.2824C80.2917 55.2824 80.8742 54.6455 80.8742 53.7045C80.8742 53.1544 80.6139 52.7781 79.9198 52.1845C79.1761 51.6344 78.8911 51.3449 78.8911 51.0988C78.8911 50.8093 79.1018 50.6066 79.4488 50.6066C79.7587 50.6066 80.2049 50.7659 80.6759 51.1712L80.6635 50.071Z" fill="#006289"/>
<path d="M82.9914 48.6094L81.4297 50.5637V50.6939H82.161V53.5458C82.161 54.5157 82.6196 55.2395 83.5244 55.2395C83.8826 55.2163 84.2321 55.0918 84.5408 54.8776V53.8932C84.1937 54.1538 83.8962 54.2985 83.5864 54.2985C83.3385 54.2985 82.9914 54.1248 82.9914 53.4879V50.7229H84.3177V49.753H82.9914V48.6094Z" fill="#006289"/>
<path d="M86.1838 49.7243H85.3533V55.1094H86.1838V49.7243ZM86.2705 48.103C86.2433 47.7932 86.0115 47.563 85.745 47.5833C85.4785 47.6035 85.274 47.867 85.2814 48.1782C85.2889 48.4895 85.507 48.7385 85.7748 48.7399C86.0586 48.7168 86.2767 48.4359 86.2705 48.103Z" fill="#006289"/>
<path d="M88.5305 48.6094L86.9688 50.5637V50.6939H87.7V53.5458C87.7 54.5157 88.1586 55.2395 89.0635 55.2395C89.4217 55.2163 89.7712 55.0918 90.0798 54.8776V53.8932C89.7328 54.1538 89.4353 54.2985 89.1254 54.2985C88.8775 54.2985 88.5305 54.1248 88.5305 53.4879V50.7229H89.8567V49.753H88.5305V48.6094Z" fill="#006289"/>
<path d="M94.3976 55.1223V49.7227H93.5647V53.5733C93.292 54.0655 92.9449 54.3261 92.5607 54.3261C91.9781 54.3261 91.7054 53.9063 91.7054 53.139V49.7227H90.875V53.0811C90.875 54.4564 91.4699 55.2236 92.3376 55.2236C92.7466 55.2236 93.2424 54.9051 93.5895 54.4274V55.1223H94.3976Z" fill="#006289"/>
<path d="M96.7414 48.6094L95.1797 50.5637V50.6939H95.911V53.5458C95.911 54.5157 96.3696 55.2395 97.2744 55.2395C97.6326 55.2163 97.9821 55.0918 98.2908 54.8776V53.8932C97.9437 54.1538 97.6462 54.2985 97.3364 54.2985C97.0885 54.2985 96.7414 54.1248 96.7414 53.4879V50.7229H98.0677V49.753H96.729L96.7414 48.6094Z" fill="#006289"/>
<path d="M101.044 49.6367C99.7793 49.6367 98.8125 50.8382 98.8125 52.3872C98.8125 54.0375 99.7421 55.2535 101.044 55.2535C102.345 55.2535 103.324 54.0954 103.324 52.3872C103.337 50.7659 102.367 49.6367 101.044 49.6367ZM101.031 50.5777C101.862 50.5777 102.469 51.3304 102.469 52.3727C102.469 53.5453 101.911 54.2546 101.031 54.2546C100.213 54.2546 99.6677 53.5019 99.6677 52.3582C99.6677 51.3304 100.25 50.5777 101.031 50.5777Z" fill="#006289"/>
<path d="M110.349 46.8711H109.518V49.7663C109.238 49.6317 108.941 49.5593 108.638 49.5492C107.399 49.5492 106.531 50.6639 106.531 52.2273C106.531 53.9644 107.325 55.0501 108.576 55.0501H110.349V46.8711ZM109.506 54.1526H108.663C107.696 54.1526 107.374 53.3999 107.374 52.3865C107.374 51.2574 107.919 50.5191 108.725 50.5191C108.995 50.5162 109.262 50.5857 109.506 50.7218V54.1526Z" fill="#006289"/>
<path d="M115.314 53.5C114.83 53.9198 114.347 54.1515 113.839 54.1515C113.02 54.1515 112.55 53.6014 112.426 52.5301H115.388C115.388 50.5324 114.669 49.5625 113.553 49.5625C112.438 49.5625 111.57 50.6627 111.57 52.2985C111.57 53.7895 112.302 55.1793 113.615 55.1793C114.224 55.2068 114.821 54.9809 115.301 54.5423L115.314 53.5ZM112.438 51.8208C112.562 50.9667 112.934 50.489 113.578 50.489C114.173 50.489 114.533 51.0101 114.57 51.8208H112.438Z" fill="#006289"/>
<path d="M122.668 47.333C122.259 46.9638 121.76 46.7611 121.243 46.7539C120.065 46.7539 119.297 47.608 119.297 48.9398C119.297 51.1836 122.061 51.3718 122.061 53.0655C122.061 53.5143 121.726 54.0933 121.007 54.0933C120.388 54.0933 119.78 53.6735 119.309 52.9063V54.4118C119.803 54.9141 120.44 55.1834 121.094 55.1646C122.135 55.1646 122.879 54.2236 122.879 52.9352C122.879 50.3295 120.115 50.344 120.115 48.7806C120.115 48.2015 120.536 47.8107 121.131 47.8107C121.565 47.8107 122.086 47.9989 122.643 48.6648L122.668 47.333Z" fill="#006289"/>
<path d="M127.372 54.108C127.25 54.2427 127.101 54.3425 126.939 54.3975C126.827 54.3975 126.778 54.3252 126.778 54.1225V51.3431C126.778 50.1126 126.108 49.5625 125.253 49.5625C124.646 49.5625 124.187 49.7941 123.852 50.2863V51.4589C124.249 50.8364 124.72 50.5614 125.179 50.5614C125.687 50.5614 125.947 50.8364 125.947 51.5168V51.8063L125.203 52.1393C124.534 52.4577 123.766 52.7762 123.766 53.8475C123.766 54.5423 124.175 55.1648 124.807 55.1648C125.232 55.1518 125.638 54.9563 125.947 54.6147C126.021 55.0055 126.22 55.1648 126.579 55.1648C126.84 55.1648 127.001 55.0635 127.397 54.745L127.372 54.108ZM125.935 53.9633C125.754 54.2209 125.488 54.3773 125.203 54.3975C124.856 54.3975 124.608 54.0791 124.608 53.6448C124.608 53.0078 125.228 52.6894 125.935 52.3854V53.9633Z" fill="#006289"/>
<path d="M129.252 46.8711H128.422V55.0501H129.252V46.8711Z" fill="#006289"/>
<path d="M134.264 55.0481V49.6629H133.433V53.5136C133.161 54.0058 132.814 54.2663 132.429 54.2663C131.847 54.2663 131.574 53.8465 131.574 53.0793V49.6484H130.75V53.0142C130.75 54.3894 131.345 55.1566 132.213 55.1566C132.622 55.1566 133.117 54.8381 133.464 54.3604V55.0553L134.264 55.0481Z" fill="#006289"/>
<path d="M139.382 46.8711H138.557V49.7663C138.277 49.6317 137.98 49.5593 137.677 49.5492C136.438 49.5492 135.57 50.6639 135.57 52.2273C135.57 53.9644 136.364 55.0501 137.615 55.0501H139.388V46.8711H139.382ZM138.551 54.1526H137.708C136.742 54.1526 136.419 53.3999 136.419 52.3865C136.419 51.2574 136.965 50.5191 137.77 50.5191C138.041 50.5162 138.307 50.5857 138.551 50.7218V54.1526Z" fill="#006289"/>
<path d="M148.808 47.7663C147.94 47.3031 147.271 47.0859 146.601 47.0859C144.569 47.0859 143.094 48.9099 143.094 51.3998C143.094 53.1225 144.147 55.4821 146.552 55.4821C147.365 55.4966 148.167 55.252 148.87 54.7728V53.4989C148.151 54.1069 147.358 54.4254 146.639 54.4254C145.102 54.4254 144.048 53.1515 144.048 51.313C144.048 49.4745 145.139 48.1717 146.601 48.1717C147.345 48.1717 148.014 48.4322 148.808 49.0258V47.7663Z" fill="#006289"/>
<path d="M153.221 54.444C153.035 54.6177 152.874 54.7335 152.775 54.7335C152.675 54.7335 152.613 54.6611 152.613 54.4584V51.679C152.613 50.4485 151.944 49.8984 151.089 49.8984C150.482 49.8984 150.023 50.1301 149.688 50.6222V51.7948C150.085 51.1723 150.556 50.8973 151.015 50.8973C151.523 50.8973 151.783 51.1723 151.783 51.8527V52.1422L151.039 52.4752C150.37 52.7937 149.602 53.1121 149.602 54.1834C149.602 54.8782 150.011 55.5007 150.643 55.5007C151.068 55.4877 151.474 55.2923 151.783 54.9506C151.857 55.3415 152.056 55.5007 152.415 55.5007C152.675 55.5007 152.837 55.3994 153.233 55.0809L153.221 54.444ZM151.783 54.3137C151.602 54.5714 151.337 54.7277 151.052 54.748C150.705 54.748 150.457 54.4295 150.457 53.9952C150.457 53.3582 151.077 53.0398 151.783 52.7358V54.3209V54.3137Z" fill="#006289"/>
<path d="M154.086 50.0109V55.3961H154.916V52.5804C154.916 51.654 155.363 50.9302 155.945 50.9302C156.143 50.9302 156.478 51.1473 156.726 51.4513L157.172 50.5248C156.813 50.105 156.503 49.9023 156.168 49.9023C155.772 49.9023 155.363 50.3077 154.941 51.2486H154.916V50.0037L154.086 50.0182V50.0109Z" fill="#006289"/>
<path d="M158.687 47.2031H157.844V55.4111H158.687V47.2031Z" fill="#006289"/>
<path d="M161.934 49.9141C160.67 49.9141 159.703 51.1156 159.703 52.6645C159.703 54.3148 160.633 55.5308 161.934 55.5308C163.236 55.5308 164.215 54.3727 164.215 52.6645C164.202 51.0577 163.248 49.9141 161.934 49.9141ZM161.922 50.8695C162.752 50.8695 163.36 51.6223 163.36 52.6645C163.36 53.8371 162.802 54.5464 161.922 54.5464C161.104 54.5464 160.558 53.7937 160.558 52.6501C160.558 51.6223 161.129 50.8695 161.922 50.8695Z" fill="#006289"/>
<path d="M167.671 50.3483C167.301 50.0719 166.872 49.9227 166.432 49.9141C165.589 49.9141 165.044 50.4642 165.044 51.3906C165.044 52.8527 167.027 53.2291 167.027 53.9963C167.027 54.3872 166.742 54.5899 166.407 54.6188C166.06 54.6188 165.577 54.3872 165.031 53.924V55.0821C165.577 55.444 165.986 55.5743 166.494 55.5743C167.299 55.5743 167.882 54.9373 167.882 53.9963C167.882 53.4463 167.622 53.0699 166.928 52.4763C166.184 51.9263 165.899 51.6367 165.899 51.3906C165.899 51.1011 166.11 50.8984 166.457 50.8984C166.767 50.8984 167.213 51.0577 167.684 51.463L167.671 50.3483Z" fill="#006289"/>
<path d="M171.066 47.2031H170.148V55.4111H171.066V47.2031Z" fill="#006289"/>
<path d="M173.495 47.2031H172.578V55.4111H173.495V47.2031Z" fill="#006289"/>
<path d="M175.914 47.2031H174.984V55.4111H175.914V47.2031Z" fill="#006289"/>
</svg>
